# Blender v2.77 (sub 0) OBJ File: 'lowpoly fruits.blend'
# www.blender.org
mtllib banana.mtl
o Icosphere.002
v 2.227930 0.628706 0.559440
v 2.402559 0.547886 0.697324
v 2.461785 0.665145 0.894254
v 0.951514 0.954112 1.666612
v 0.915124 0.829417 1.705600
v 0.975911 0.928158 1.724313
v 0.957716 0.865810 1.743807
v 0.890728 0.855372 1.647899
v 0.908923 0.917719 1.628405
v 0.999092 0.887334 1.495829
v 0.962453 0.761785 1.535084
v 1.011581 0.709520 1.651278
v 1.133988 0.908354 1.688961
v 1.097348 0.782804 1.728216
v 1.137462 0.614963 1.353078
v 1.193266 0.806182 1.293290
v 1.212286 0.535360 1.530047
v 1.813182 0.553784 1.359399
v 2.201181 0.556536 1.088097
v 2.188001 0.792321 1.071640
v 2.064484 0.891993 0.896005
v 1.954146 0.755881 0.736826
v 1.579327 0.517344 1.024585
v 1.967326 0.520097 0.753283
v 1.702844 0.417672 1.200220
v 2.090843 0.420424 0.928918
v 1.342915 0.646977 1.647228
v 1.398718 0.838196 1.587440
v 2.459072 0.944685 0.846648
v 2.601944 0.802097 0.762375
v 2.385859 0.768427 0.453003
v 2.242987 0.911015 0.537276
v 2.565338 0.713968 0.565553
v 2.536343 1.048001 0.725246
v 2.663585 0.979807 0.643793
v 2.499837 0.954292 0.409353
v 2.372595 1.022486 0.490805
v 2.645333 0.932953 0.485847
v 2.480248 1.152245 0.577286
v 2.564617 1.139871 0.621643
v 2.638402 1.100327 0.574410
v 2.543449 1.085531 0.438464
v 2.469664 1.125075 0.485696
v 2.627818 1.073157 0.482821
v 2.564548 1.355620 0.496271
v 2.630613 1.345931 0.531004
v 2.688390 1.314966 0.494019
v 2.614038 1.303380 0.387567
v 2.556261 1.334345 0.424552
v 2.680103 1.293691 0.422301
v 2.569693 1.408733 0.486897
v 2.647428 1.397332 0.527766
v 2.715411 1.360898 0.484248
v 2.627924 1.347265 0.358991
v 2.559942 1.383700 0.402510
v 2.705659 1.335865 0.399860
vn 0.3916 0.1686 0.9046
vn -0.3774 -0.8938 -0.2422
vn 0.2788 0.9038 0.3246
vn 0.3334 -0.8181 0.4685
vn 0.5608 0.1194 0.8193
vn -0.2407 -0.5546 0.7966
vn 0.2394 0.2254 0.9444
vn -0.8189 0.0605 -0.5708
vn -0.7699 -0.6370 0.0390
vn 0.1944 -0.7215 -0.6646
vn 0.5449 -0.7837 0.2981
vn -0.6403 0.7223 -0.2615
vn -0.0079 -0.8698 -0.4933
vn -0.1141 -0.6528 0.7489
vn -0.2966 0.8142 -0.4992
vn 0.1843 -0.8063 0.5620
vn -0.2370 -0.9070 -0.3481
vn -0.7229 -0.0051 -0.6910
vn -0.6713 -0.7396 -0.0489
vn -0.5793 -0.0582 -0.8130
vn 0.7601 -0.6334 0.1454
vn 0.9393 -0.3428 -0.0148
vn -0.0534 0.8137 0.5788
vn 0.3768 -0.4304 -0.8202
vn 0.6513 0.2802 0.7052
vn -0.4577 0.1074 -0.8826
vn -0.9246 0.3808 -0.0061
vn 0.9816 0.1194 -0.1489
vn 0.4695 0.0396 -0.8820
vn 0.6408 0.4792 0.5998
vn -0.3834 0.3196 -0.8665
vn -0.9905 0.1104 0.0817
vn 0.9697 -0.2410 -0.0406
vn -0.3560 0.4694 0.8080
vn 0.4010 -0.3296 -0.8547
vn 0.5912 0.1585 0.7908
vn -0.5461 -0.0187 -0.8375
vn 0.8654 -0.4989 0.0480
vn -0.4334 0.1972 0.8794
vn 0.3082 -0.5857 -0.7497
vn 0.4945 -0.1074 0.8625
vn -0.6197 -0.2811 -0.7328
vn -0.7763 0.3831 0.5006
vn 0.2923 0.9071 -0.3029
usemtl yellow.002
s off
f 27//1 28//1 13//1 14//1
f 23//2 25//2 17//2 15//2
f 21//3 4//3 6//3 13//3 28//3 20//3
f 19//4 18//4 25//4 26//4
f 19//5 3//5 30//5 29//5 20//5 28//5 27//5 18//5
f 12//6 14//6 7//6 5//6
f 14//7 13//7 6//7 7//7
f 10//8 11//8 8//8 9//8
f 11//9 12//9 5//9 8//9
f 2//10 1//10 31//10 33//10
f 19//11 26//11 2//11 3//11
f 21//12 39//12 43//12 37//12 32//12 22//12
f 26//13 24//13 1//13 2//13
f 17//14 27//14 14//14 12//14
f 16//15 10//15 9//15 4//15 21//15 22//15
f 25//16 18//16 27//16 17//16
f 26//17 25//17 23//17 24//17
f 16//18 15//18 11//18 10//18
f 15//19 17//19 12//19 11//19
f 24//20 23//20 15//20 16//20 22//20 32//20 31//20 1//20
f 3//21 2//21 33//21 30//21
f 30//22 33//22 38//22 35//22
f 34//23 40//23 39//23 21//23 20//23 29//23
f 33//24 31//24 36//24 38//24
f 29//25 30//25 35//25 34//25
f 31//26 32//26 37//26 36//26
f 43//27 39//27 45//27 49//27
f 35//28 38//28 44//28 41//28
f 38//29 36//29 42//29 44//29
f 34//30 35//30 41//30 40//30
f 36//31 37//31 43//31 42//31
f 49//32 45//32 51//32 55//32
f 41//33 44//33 50//33 47//33
f 39//34 40//34 46//34 45//34
f 44//35 42//35 48//35 50//35
f 40//36 41//36 47//36 46//36
f 42//37 43//37 49//37 48//37
f 47//38 50//38 56//38 53//38
f 45//39 46//39 52//39 51//39
f 50//40 48//40 54//40 56//40
f 46//41 47//41 53//41 52//41
f 48//42 49//42 55//42 54//42
usemtl brown.004
f 6//43 4//43 9//43 8//43 5//43 7//43
f 52//44 53//44 56//44 54//44 55//44 51//44
o Icosphere.003
v 2.499540 0.627156 0.800275
v 2.718773 0.611139 0.888133
v 2.796537 0.772894 1.042492
v 1.520646 0.886648 2.191457
v 1.528177 0.766739 2.254372
v 1.565067 0.877545 2.241878
v 1.568832 0.817590 2.273335
v 1.483756 0.775843 2.203951
v 1.479991 0.835797 2.172494
v 1.536669 0.800148 2.023676
v 1.544251 0.679417 2.087021
v 1.633700 0.661084 2.188554
v 1.707987 0.884214 2.163395
v 1.715568 0.763483 2.226740
v 1.696052 0.539979 1.880080
v 1.684504 0.723859 1.783601
v 1.832289 0.512058 2.034720
v 2.342597 0.620617 1.690719
v 2.631939 0.651664 1.317258
v 2.556397 0.872385 1.277080
v 2.370127 0.909877 1.135883
v 2.259400 0.726647 1.034863
v 2.045599 0.474879 1.448501
v 2.334942 0.505925 1.075041
v 2.231869 0.437387 1.589699
v 2.521212 0.468434 1.216239
v 1.956978 0.668018 2.092880
v 1.945431 0.851898 1.996401
v 2.711604 1.031939 0.964400
v 2.858154 0.908355 0.859064
v 2.583726 0.773691 0.635252
v 2.437175 0.897275 0.740588
v 2.794215 0.779231 0.694490
v 2.725793 1.124191 0.813829
v 2.839931 1.069407 0.706839
v 2.631971 0.967360 0.537236
v 2.517832 1.022143 0.644225
v 2.793020 0.990992 0.568543
v 2.608492 1.185064 0.678033
v 2.701881 1.198768 0.696187
v 2.768068 1.167000 0.634146
v 2.647476 1.107825 0.535797
v 2.581290 1.139593 0.597838
v 2.740865 1.121529 0.553951
v 2.614866 1.382464 0.551446
v 2.687993 1.393195 0.565661
v 2.739820 1.368319 0.517081
v 2.645391 1.321983 0.440069
v 2.593565 1.346858 0.488650
v 2.718519 1.332713 0.454285
v 2.603916 1.432779 0.534599
v 2.689961 1.445405 0.551326
v 2.750942 1.416135 0.494163
v 2.639833 1.361614 0.403548
v 2.578852 1.390883 0.460710
v 2.725879 1.374240 0.420275
vn 0.5610 0.4120 0.7180
vn -0.1920 -0.9814 -0.0076
vn 0.1194 0.9863 0.1140
vn 0.6385 -0.6298 0.4424
vn 0.7085 0.3834 0.5925
vn 0.1242 -0.4323 0.8931
vn 0.4156 0.4429 0.7944
vn -0.9285 -0.2166 -0.3017
vn -0.5478 -0.7621 0.3450
vn 0.1863 -0.7782 -0.5997
vn 0.7821 -0.5854 0.2135
vn -0.8460 0.5138 -0.1428
vn 0.0801 -0.9299 -0.3590
vn 0.2542 -0.5097 0.8219
vn -0.6113 0.6277 -0.4819
vn 0.5213 -0.6313 0.5742
vn -0.0858 -0.9852 -0.1484
vn -0.8543 -0.2826 -0.4363
vn -0.4535 -0.8570 0.2448
vn -0.7394 -0.3272 -0.5884
vn 0.9048 -0.4257 -0.0138
vn 0.9569 -0.1399 -0.2543
vn -0.1006 0.8795 0.4651
vn 0.2425 -0.4905 -0.8370
vn 0.7226 0.5349 0.4378
vn -0.6858 -0.1562 -0.7108
vn -0.9583 0.1756 0.2255
vn 0.8455 0.2875 -0.4499
vn 0.1952 -0.0316 -0.9803
vn 0.6353 0.7041 0.3172
vn -0.6654 0.0658 -0.7436
vn -0.9290 -0.0812 0.3612
vn 0.9530 -0.0408 -0.3001
vn -0.2361 0.5299 0.8145
vn 0.2308 -0.3952 -0.8891
vn 0.7196 0.4218 0.5517
vn -0.7248 -0.2870 -0.6263
vn 0.9436 -0.2932 -0.1538
vn -0.2214 0.2660 0.9382
vn 0.2360 -0.6404 -0.7309
vn 0.7149 0.1600 0.6807
vn -0.7002 -0.5344 -0.4734
vn -0.6872 0.3032 0.6602
vn -0.0342 0.8743 -0.4842
usemtl yellow.003
s off
f 83//45 84//45 69//45 70//45
f 79//46 81//46 73//46 71//46
f 77//47 60//47 62//47 69//47 84//47 76//47
f 75//48 74//48 81//48 82//48
f 75//49 59//49 86//49 85//49 76//49 84//49 83//49 74//49
f 68//50 70//50 63//50 61//50
f 70//51 69//51 62//51 63//51
f 66//52 67//52 64//52 65//52
f 67//53 68//53 61//53 64//53
f 58//54 57//54 87//54 89//54
f 75//55 82//55 58//55 59//55
f 77//56 95//56 99//56 93//56 88//56 78//56
f 82//57 80//57 57//57 58//57
f 73//58 83//58 70//58 68//58
f 72//59 66//59 65//59 60//59 77//59 78//59
f 81//60 74//60 83//60 73//60
f 82//61 81//61 79//61 80//61
f 72//62 71//62 67//62 66//62
f 71//63 73//63 68//63 67//63
f 80//64 79//64 71//64 72//64 78//64 88//64 87//64 57//64
f 59//65 58//65 89//65 86//65
f 86//66 89//66 94//66 91//66
f 90//67 96//67 95//67 77//67 76//67 85//67
f 89//68 87//68 92//68 94//68
f 85//69 86//69 91//69 90//69
f 87//70 88//70 93//70 92//70
f 99//71 95//71 101//71 105//71
f 91//72 94//72 100//72 97//72
f 94//73 92//73 98//73 100//73
f 90//74 91//74 97//74 96//74
f 92//75 93//75 99//75 98//75
f 105//76 101//76 107//76 111//76
f 97//77 100//77 106//77 103//77
f 95//78 96//78 102//78 101//78
f 100//79 98//79 104//79 106//79
f 96//80 97//80 103//80 102//80
f 98//81 99//81 105//81 104//81
f 103//82 106//82 112//82 109//82
f 101//83 102//83 108//83 107//83
f 106//84 104//84 110//84 112//84
f 102//85 103//85 109//85 108//85
f 104//86 105//86 111//86 110//86
usemtl brown.005
f 62//87 60//87 65//87 64//87 61//87 63//87
f 108//88 109//88 112//88 110//88 111//88 107//88
o Icosphere.004
v 2.797441 0.693765 0.976498
v 3.029352 0.739311 0.989960
v 3.104610 0.944265 1.081443
v 2.212407 1.089331 2.545645
v 2.266518 0.991054 2.621846
v 2.269929 1.100640 2.579726
v 2.296985 1.051502 2.617826
v 2.208996 0.979745 2.587765
v 2.181940 1.028884 2.549664
v 2.201884 0.970235 2.398691
v 2.256367 0.871285 2.475415
v 2.372201 0.894058 2.544045
v 2.379070 1.114732 2.459227
v 2.433552 1.015781 2.535951
v 2.374024 0.717326 2.256864
v 2.291044 0.868034 2.140009
v 2.550446 0.752011 2.361391
v 2.901459 0.868216 1.857583
v 3.058307 0.863020 1.410899
v 2.922522 1.050411 1.361040
v 2.701045 1.018856 1.283638
v 2.615353 0.799911 1.256095
v 2.594290 0.617716 1.752639
v 2.751138 0.612520 1.305954
v 2.815767 0.649271 1.830040
v 2.972615 0.644074 1.383356
v 2.643887 0.937403 2.349063
v 2.560907 1.088110 2.232208
v 2.940087 1.157597 0.992912
v 3.077264 1.041708 0.868020
v 2.793437 0.810244 0.771050
v 2.656259 0.926132 0.895942
v 3.003939 0.868032 0.757090
v 2.888540 1.212836 0.832677
v 2.978192 1.156291 0.705239
v 2.763109 0.980888 0.631755
v 2.673456 1.037433 0.759194
v 2.915477 1.040317 0.604777
v 2.726810 1.217507 0.734050
v 2.815165 1.251968 0.718406
v 2.867152 1.219179 0.644508
v 2.742430 1.117467 0.601896
v 2.690443 1.150256 0.675795
v 2.830785 1.151928 0.586252
v 2.648738 1.377321 0.581093
v 2.717924 1.404305 0.568843
v 2.758632 1.378630 0.510977
v 2.660969 1.298985 0.477611
v 2.620261 1.324661 0.535477
v 2.730155 1.325970 0.465361
v 2.621463 1.419378 0.560537
v 2.702870 1.451129 0.546123
v 2.750769 1.420918 0.478036
v 2.635855 1.327205 0.438775
v 2.587956 1.357416 0.506863
v 2.717262 1.358956 0.424362
vn 0.6191 0.6649 0.4179
vn 0.0618 -0.9737 0.2193
vn -0.1008 0.9901 -0.0975
vn 0.8713 -0.3801 0.3104
vn 0.7281 0.6351 0.2580
vn 0.4708 -0.1799 0.8637
vn 0.4977 0.6858 0.5310
vn -0.8924 -0.4478 0.0561
vn -0.2243 -0.7467 0.6263
vn 0.1979 -0.8497 -0.4886
vn 0.9299 -0.3653 0.0434
vn -0.9518 0.3018 0.0552
vn 0.2038 -0.9574 -0.2047
vn 0.5907 -0.2466 0.7683
vn -0.8566 0.3738 -0.3557
vn 0.7997 -0.3720 0.4713
vn 0.1222 -0.9910 0.0544
vn -0.8447 -0.5289 -0.0822
vn -0.1412 -0.8435 0.5182
vn -0.7695 -0.5862 -0.2536
vn 0.9410 -0.2438 -0.2348
vn 0.8519 -0.0181 -0.5235
vn -0.1809 0.9305 0.3186
vn 0.1130 -0.6207 -0.7759
vn 0.6607 0.7460 0.0841
vn -0.7960 -0.4420 -0.4135
vn -0.8699 0.0450 0.4911
vn 0.5885 0.3236 -0.7409
vn -0.0841 -0.2250 -0.9707
vn 0.5043 0.8631 -0.0282
vn -0.8410 -0.2340 -0.4878
vn -0.7415 -0.1628 0.6509
vn 0.8110 0.0651 -0.5814
vn -0.1230 0.6542 0.7463
vn 0.0641 -0.5441 -0.8366
vn 0.7175 0.6642 0.2100
vn -0.7764 -0.5541 -0.3003
vn 0.9053 -0.1432 -0.3999
vn -0.0098 0.4340 0.9009
vn 0.1735 -0.7399 -0.6499
vn 0.8137 0.4438 0.3755
vn -0.6499 -0.7498 -0.1245
vn -0.5287 0.3188 0.7866
vn -0.3824 0.7144 -0.5860
usemtl yellow.004
s off
f 139//89 140//89 125//89 126//89
f 135//90 137//90 129//90 127//90
f 133//91 116//91 118//91 125//91 140//91 132//91
f 131//92 130//92 137//92 138//92
f 131//93 115//93 142//93 141//93 132//93 140//93 139//93 130//93
f 124//94 126//94 119//94 117//94
f 126//95 125//95 118//95 119//95
f 122//96 123//96 120//96 121//96
f 123//97 124//97 117//97 120//97
f 114//98 113//98 143//98 145//98
f 131//99 138//99 114//99 115//99
f 133//100 151//100 155//100 149//100 144//100 134//100
f 138//101 136//101 113//101 114//101
f 129//102 139//102 126//102 124//102
f 128//103 122//103 121//103 116//103 133//103 134//103
f 137//104 130//104 139//104 129//104
f 138//105 137//105 135//105 136//105
f 128//106 127//106 123//106 122//106
f 127//107 129//107 124//107 123//107
f 136//108 135//108 127//108 128//108 134//108 144//108 143//108 113//108
f 115//109 114//109 145//109 142//109
f 142//110 145//110 150//110 147//110
f 146//111 152//111 151//111 133//111 132//111 141//111
f 145//112 143//112 148//112 150//112
f 141//113 142//113 147//113 146//113
f 143//114 144//114 149//114 148//114
f 155//115 151//115 157//115 161//115
f 147//116 150//116 156//116 153//116
f 150//117 148//117 154//117 156//117
f 146//118 147//118 153//118 152//118
f 148//119 149//119 155//119 154//119
f 161//120 157//120 163//120 167//120
f 153//121 156//121 162//121 159//121
f 151//122 152//122 158//122 157//122
f 156//123 154//123 160//123 162//123
f 152//124 153//124 159//124 158//124
f 154//125 155//125 161//125 160//125
f 159//126 162//126 168//126 165//126
f 157//127 158//127 164//127 163//127
f 162//128 160//128 166//128 168//128
f 158//129 159//129 165//129 164//129
f 160//130 161//130 167//130 166//130
usemtl brown.006
f 118//131 116//131 121//131 120//131 117//131 119//131
f 164//132 165//132 168//132 166//132 167//132 163//132
