# Blender v2.79 (sub 0) OBJ File: ''
# www.blender.org
mtllib banana1.mtl
o Icosphere.002
v -0.210697 -0.058020 0.164935
v -0.193537 0.000782 0.146549
v -0.274944 0.022356 0.177768
v -0.286211 -0.016252 0.189840
v -0.137997 -0.097884 -0.026535
v -0.100015 -0.128534 0.027475
v -0.250867 -0.092344 0.128900
v -0.273876 -0.067865 0.074481
v 0.011194 0.017325 -0.066074
v -0.331057 0.036427 0.170896
v -0.323554 0.028446 0.188639
v 0.049176 -0.013325 -0.012065
v 0.053229 -0.085832 -0.007004
v -0.066085 -0.086678 0.076424
v 0.019299 -0.127688 -0.055953
v 0.133368 -0.052433 -0.066613
v 0.176468 -0.010319 -0.107167
v 0.132534 0.033528 -0.081252
v -0.312586 -0.038788 0.166180
v -0.329150 0.009273 0.194634
v -0.342247 -0.001918 0.182885
v -0.316426 0.015892 0.118378
v -0.327693 -0.022716 0.130449
v -0.349749 0.006063 0.165141
v -0.344154 0.025236 0.159147
v 0.115155 -0.088492 -0.127171
v 0.061455 -0.063639 -0.169572
v 0.110020 -0.020673 -0.202302
v 0.165212 -0.037420 -0.167692
v 0.139045 0.097355 -0.164084
v 0.135791 0.089000 -0.192249
v 0.105941 0.057453 -0.190678
v 0.066085 0.023174 -0.176387
v -0.022737 -0.024531 -0.115024
v -0.018684 -0.097037 -0.109963
v -0.256715 -0.009063 0.056095
v 0.189811 0.029920 -0.192202
v 0.195424 0.044329 -0.143632
v 0.156295 0.065299 -0.118585
v 0.164990 0.093550 -0.150444
v 0.145069 0.036482 -0.215725
v 0.164969 0.159895 -0.188997
v 0.162420 0.153353 -0.211051
v 0.184425 0.073035 -0.193133
v 0.187680 0.081390 -0.164968
v 0.158480 0.076840 -0.206773
v 0.166551 0.176228 -0.191879
v 0.163552 0.168530 -0.217829
v 0.200503 0.140851 -0.211743
v 0.203051 0.147394 -0.189689
v 0.185284 0.156916 -0.178316
v 0.180187 0.143831 -0.222425
v 0.208362 0.153820 -0.218644
v 0.211361 0.161518 -0.192694
v 0.190455 0.172722 -0.179312
v 0.184457 0.157326 -0.231212
vn 0.3916 0.1686 0.9046
vn -0.3774 -0.8938 -0.2422
vn 0.2788 0.9038 0.3246
vn 0.3334 -0.8181 0.4685
vn 0.5608 0.1194 0.8193
vn -0.2407 -0.5546 0.7966
vn 0.2394 0.2254 0.9444
vn -0.8189 0.0605 -0.5708
vn -0.7699 -0.6370 0.0390
vn 0.1944 -0.7215 -0.6646
vn 0.5449 -0.7837 0.2982
vn -0.6403 0.7223 -0.2615
vn -0.0079 -0.8698 -0.4933
vn -0.1141 -0.6528 0.7489
vn -0.2966 0.8142 -0.4992
vn 0.1843 -0.8063 0.5620
vn -0.2370 -0.9070 -0.3481
vn -0.7229 -0.0051 -0.6910
vn -0.6713 -0.7396 -0.0489
vn -0.5793 -0.0582 -0.8130
vn 0.7601 -0.6334 0.1454
vn 0.9393 -0.3428 -0.0148
vn -0.0534 0.8137 0.5788
vn 0.3768 -0.4304 -0.8202
vn 0.6513 0.2802 0.7052
vn -0.4577 0.1074 -0.8826
vn -0.9246 0.3808 -0.0061
vn 0.9816 0.1194 -0.1489
vn 0.4695 0.0396 -0.8820
vn 0.6408 0.4792 0.5998
vn -0.3834 0.3196 -0.8665
vn -0.9905 0.1104 0.0817
vn 0.9697 -0.2410 -0.0406
vn -0.3560 0.4694 0.8080
vn 0.4010 -0.3296 -0.8547
vn 0.5912 0.1585 0.7908
vn -0.5461 -0.0187 -0.8375
vn 0.8654 -0.4989 0.0480
vn -0.4334 0.1972 0.8794
vn 0.3082 -0.5857 -0.7497
vn 0.4945 -0.1074 0.8625
vn -0.6197 -0.2811 -0.7328
vn -0.7763 0.3831 0.5006
vn 0.2923 0.9071 -0.3029
usemtl yellow.002
s 1
f 1//1 2//1 3//1 4//1
f 5//2 6//2 7//2 8//2
f 9//3 10//3 11//3 3//3 2//3 12//3
f 13//4 14//4 6//4 15//4
f 13//5 16//5 17//5 18//5 12//5 2//5 1//5 14//5
f 19//6 4//6 20//6 21//6
f 4//7 3//7 11//7 20//7
f 22//8 23//8 24//8 25//8
f 23//9 19//9 21//9 24//9
f 26//10 27//10 28//10 29//10
f 13//11 15//11 26//11 16//11
f 9//12 30//12 31//12 32//12 33//12 34//12
f 15//13 35//13 27//13 26//13
f 7//14 1//14 4//14 19//14
f 36//15 22//15 25//15 10//15 9//15 34//15
f 6//16 14//16 1//16 7//16
f 15//17 6//17 5//17 35//17
f 36//18 8//18 23//18 22//18
f 8//19 7//19 19//19 23//19
f 35//20 5//20 8//20 36//20 34//20 33//20 28//20 27//20
f 16//21 26//21 29//21 17//21
f 17//22 29//22 37//22 38//22
f 39//23 40//23 30//23 9//23 12//23 18//23
f 29//24 28//24 41//24 37//24
f 18//25 17//25 38//25 39//25
f 28//26 33//26 32//26 41//26
f 31//27 30//27 42//27 43//27
f 38//28 37//28 44//28 45//28
f 37//29 41//29 46//29 44//29
f 39//30 38//30 45//30 40//30
f 41//31 32//31 31//31 46//31
f 43//32 42//32 47//32 48//32
f 45//33 44//33 49//33 50//33
f 30//34 40//34 51//34 42//34
f 44//35 46//35 52//35 49//35
f 40//36 45//36 50//36 51//36
f 46//37 31//37 43//37 52//37
f 50//38 49//38 53//38 54//38
f 42//39 51//39 55//39 47//39
f 49//40 52//40 56//40 53//40
f 51//41 50//41 54//41 55//41
f 52//42 43//42 48//42 56//42
usemtl brown.004
f 11//43 10//43 25//43 24//43 21//43 20//43
f 55//44 54//44 53//44 56//44 48//44 47//44
o Icosphere.003
v -0.045554 -0.055552 0.294106
v -0.049104 0.000993 0.264437
v -0.122121 0.010931 0.315790
v -0.119790 -0.026195 0.335269
v -0.018302 -0.114944 0.095952
v 0.038978 -0.126473 0.139372
v -0.083897 -0.103511 0.276221
v -0.125791 -0.094925 0.228667
v 0.081494 0.018822 -0.000181
v -0.179730 0.011679 0.324419
v -0.166071 0.008880 0.339924
v 0.138774 0.007293 0.043238
v 0.162004 -0.060581 0.055593
v 0.073028 -0.070128 0.170437
v 0.127954 -0.116926 0.024529
v 0.212620 -0.023301 -0.028900
v 0.231568 0.018354 -0.085306
v 0.186502 0.056358 -0.052914
v -0.144965 -0.057684 0.323526
v -0.164913 -0.009557 0.349597
v -0.177415 -0.025194 0.343766
v -0.174803 -0.014920 0.272825
v -0.172472 -0.052047 0.292304
v -0.191075 -0.022395 0.328261
v -0.192232 -0.003958 0.318588
v 0.188707 -0.073043 -0.076367
v 0.121290 -0.068117 -0.103384
v 0.147178 -0.023056 -0.154131
v 0.211906 -0.021353 -0.135915
v 0.154794 0.103445 -0.140975
v 0.146429 0.089463 -0.165636
v 0.126915 0.053345 -0.151372
v 0.102112 0.014947 -0.121739
v 0.047444 -0.037523 -0.031246
v 0.070674 -0.105397 -0.018891
v -0.129342 -0.038380 0.198999
v 0.211538 0.043766 -0.174645
v 0.225964 0.067880 -0.132117
v 0.190865 0.084726 -0.099216
v 0.183512 0.107660 -0.135393
v 0.162014 0.036499 -0.184272
v 0.156754 0.164148 -0.179902
v 0.150204 0.153199 -0.199213
v 0.195500 0.083908 -0.179132
v 0.203865 0.097891 -0.154471
v 0.166782 0.079694 -0.184714
v 0.153387 0.179620 -0.185083
v 0.145679 0.166737 -0.207804
v 0.188628 0.148849 -0.209780
v 0.195179 0.159798 -0.190470
v 0.179241 0.167448 -0.175531
v 0.166141 0.145550 -0.214152
v 0.190892 0.161619 -0.220239
v 0.198599 0.174502 -0.197517
v 0.179847 0.183503 -0.179939
v 0.164432 0.157736 -0.225382
vn -0.6872 0.3032 0.6602
vn -0.0342 0.8743 -0.4841
vn 0.5610 0.4120 0.7180
vn -0.1920 -0.9814 -0.0076
vn 0.1194 0.9863 0.1140
vn 0.6385 -0.6298 0.4424
vn 0.7085 0.3834 0.5925
vn 0.1242 -0.4323 0.8931
vn 0.4156 0.4429 0.7944
vn -0.9285 -0.2166 -0.3017
vn -0.5478 -0.7621 0.3450
vn 0.1863 -0.7782 -0.5997
vn 0.7821 -0.5854 0.2135
vn -0.8460 0.5138 -0.1428
vn 0.0801 -0.9299 -0.3590
vn 0.2542 -0.5097 0.8219
vn -0.6113 0.6277 -0.4819
vn 0.5213 -0.6313 0.5742
vn -0.0858 -0.9852 -0.1484
vn -0.8543 -0.2826 -0.4363
vn -0.4535 -0.8570 0.2448
vn -0.7394 -0.3272 -0.5884
vn 0.9048 -0.4257 -0.0138
vn 0.9569 -0.1399 -0.2543
vn -0.1006 0.8795 0.4651
vn 0.2425 -0.4905 -0.8370
vn 0.7226 0.5349 0.4378
vn -0.6858 -0.1562 -0.7108
vn -0.9583 0.1756 0.2255
vn 0.8455 0.2875 -0.4499
vn 0.1952 -0.0316 -0.9803
vn 0.6353 0.7041 0.3172
vn -0.6654 0.0658 -0.7436
vn -0.9290 -0.0812 0.3612
vn 0.9530 -0.0408 -0.3001
vn -0.2361 0.5299 0.8145
vn 0.2308 -0.3952 -0.8891
vn 0.7196 0.4218 0.5517
vn -0.7248 -0.2870 -0.6263
vn 0.9436 -0.2932 -0.1538
vn -0.2214 0.2660 0.9382
vn 0.2360 -0.6404 -0.7309
vn 0.7149 0.1600 0.6807
vn -0.7002 -0.5344 -0.4734
usemtl brown.005
s 1
f 67//45 66//45 81//45 80//45 77//45 76//45
f 111//46 110//46 109//46 112//46 104//46 103//46
usemtl yellow.003
f 57//47 58//47 59//47 60//47
f 61//48 62//48 63//48 64//48
f 65//49 66//49 67//49 59//49 58//49 68//49
f 69//50 70//50 62//50 71//50
f 69//51 72//51 73//51 74//51 68//51 58//51 57//51 70//51
f 75//52 60//52 76//52 77//52
f 60//53 59//53 67//53 76//53
f 78//54 79//54 80//54 81//54
f 79//55 75//55 77//55 80//55
f 82//56 83//56 84//56 85//56
f 69//57 71//57 82//57 72//57
f 65//58 86//58 87//58 88//58 89//58 90//58
f 71//59 91//59 83//59 82//59
f 63//60 57//60 60//60 75//60
f 92//61 78//61 81//61 66//61 65//61 90//61
f 62//62 70//62 57//62 63//62
f 71//63 62//63 61//63 91//63
f 92//64 64//64 79//64 78//64
f 64//65 63//65 75//65 79//65
f 91//66 61//66 64//66 92//66 90//66 89//66 84//66 83//66
f 72//67 82//67 85//67 73//67
f 73//68 85//68 93//68 94//68
f 95//69 96//69 86//69 65//69 68//69 74//69
f 85//70 84//70 97//70 93//70
f 74//71 73//71 94//71 95//71
f 84//72 89//72 88//72 97//72
f 87//73 86//73 98//73 99//73
f 94//74 93//74 100//74 101//74
f 93//75 97//75 102//75 100//75
f 95//76 94//76 101//76 96//76
f 97//77 88//77 87//77 102//77
f 99//78 98//78 103//78 104//78
f 101//79 100//79 105//79 106//79
f 86//80 96//80 107//80 98//80
f 100//81 102//81 108//81 105//81
f 96//82 101//82 106//82 107//82
f 102//83 87//83 99//83 108//83
f 106//84 105//84 109//84 110//84
f 98//85 107//85 111//85 103//85
f 105//86 108//86 112//86 109//86
f 107//87 106//87 110//87 111//87
f 108//88 99//88 104//88 112//88
o Icosphere.004
v 0.174966 0.032837 0.361380
v 0.149449 0.079181 0.325446
v 0.093532 0.087367 0.395256
v 0.110286 0.056939 0.418850
v 0.159715 -0.065470 0.177973
v 0.227821 -0.055767 0.201775
v 0.146232 -0.024173 0.365171
v 0.091980 -0.034839 0.333028
v 0.192543 0.057885 0.033750
v 0.042281 0.079556 0.421831
v 0.059970 0.083034 0.432311
v 0.260649 0.067588 0.057552
v 0.302405 0.009963 0.072884
v 0.254172 0.011561 0.210244
v 0.276054 -0.057365 0.064414
v 0.316643 0.034947 -0.028427
v 0.308234 0.064912 -0.094057
v 0.266051 0.100549 -0.055651
v 0.091420 0.019508 0.421339
v 0.068290 0.067924 0.444027
v 0.058921 0.049335 0.445264
v 0.039045 0.042933 0.376641
v 0.055800 0.012505 0.400234
v 0.041232 0.045857 0.434783
v 0.032912 0.060968 0.423067
v 0.293501 -0.028079 -0.056559
v 0.222186 -0.042084 -0.060699
v 0.220954 -0.006266 -0.123876
v 0.285686 0.011505 -0.128169
v 0.200466 0.118972 -0.135254
v 0.189283 0.098292 -0.153168
v 0.184059 0.063597 -0.127522
v 0.178771 0.029371 -0.085471
v 0.166192 -0.009443 0.025280
v 0.207947 -0.067068 0.040612
v 0.066463 0.011505 0.297093
v 0.258483 0.064484 -0.175007
v 0.277769 0.100147 -0.144114
v 0.250200 0.117536 -0.104925
v 0.227636 0.129569 -0.140065
v 0.211628 0.046209 -0.166711
v 0.176458 0.168116 -0.182290
v 0.167701 0.151923 -0.196318
v 0.232439 0.098806 -0.180704
v 0.243623 0.119486 -0.162789
v 0.205269 0.088209 -0.175893
v 0.168071 0.181049 -0.188611
v 0.157767 0.161996 -0.205117
v 0.201494 0.152326 -0.217879
v 0.210251 0.168519 -0.203852
v 0.197733 0.176414 -0.186057
v 0.180219 0.144027 -0.214112
v 0.197530 0.162469 -0.230487
v 0.207833 0.181523 -0.213981
v 0.193104 0.190813 -0.193044
v 0.172496 0.152705 -0.226054
vn 0.6191 0.6649 0.4179
vn 0.0618 -0.9737 0.2193
vn -0.1008 0.9901 -0.0975
vn 0.8713 -0.3801 0.3104
vn 0.7281 0.6351 0.2580
vn 0.4708 -0.1798 0.8637
vn 0.4977 0.6858 0.5310
vn -0.8924 -0.4478 0.0561
vn -0.2243 -0.7467 0.6263
vn 0.1979 -0.8497 -0.4886
vn 0.9299 -0.3653 0.0434
vn -0.9518 0.3018 0.0552
vn 0.2038 -0.9574 -0.2047
vn 0.5907 -0.2466 0.7683
vn -0.8566 0.3738 -0.3557
vn 0.7997 -0.3720 0.4713
vn 0.1222 -0.9910 0.0544
vn -0.8447 -0.5289 -0.0822
vn -0.1412 -0.8435 0.5182
vn -0.7695 -0.5862 -0.2536
vn 0.9410 -0.2438 -0.2348
vn 0.8519 -0.0181 -0.5235
vn -0.1809 0.9305 0.3186
vn 0.1130 -0.6207 -0.7759
vn 0.6607 0.7460 0.0841
vn -0.7960 -0.4420 -0.4136
vn -0.8699 0.0450 0.4911
vn 0.5885 0.3236 -0.7409
vn -0.0841 -0.2250 -0.9707
vn 0.5043 0.8631 -0.0282
vn -0.8410 -0.2340 -0.4878
vn -0.7415 -0.1628 0.6509
vn 0.8110 0.0651 -0.5814
vn -0.1230 0.6542 0.7463
vn 0.0641 -0.5441 -0.8366
vn 0.7175 0.6642 0.2100
vn -0.7764 -0.5541 -0.3003
vn 0.9053 -0.1432 -0.3999
vn -0.0098 0.4340 0.9009
vn 0.1735 -0.7399 -0.6499
vn 0.8137 0.4438 0.3755
vn -0.6499 -0.7497 -0.1245
vn -0.5287 0.3188 0.7866
vn -0.3824 0.7144 -0.5860
usemtl yellow.004
s 1
f 113//89 114//89 115//89 116//89
f 117//90 118//90 119//90 120//90
f 121//91 122//91 123//91 115//91 114//91 124//91
f 125//92 126//92 118//92 127//92
f 125//93 128//93 129//93 130//93 124//93 114//93 113//93 126//93
f 131//94 116//94 132//94 133//94
f 116//95 115//95 123//95 132//95
f 134//96 135//96 136//96 137//96
f 135//97 131//97 133//97 136//97
f 138//98 139//98 140//98 141//98
f 125//99 127//99 138//99 128//99
f 121//100 142//100 143//100 144//100 145//100 146//100
f 127//101 147//101 139//101 138//101
f 119//102 113//102 116//102 131//102
f 148//103 134//103 137//103 122//103 121//103 146//103
f 118//104 126//104 113//104 119//104
f 127//105 118//105 117//105 147//105
f 148//106 120//106 135//106 134//106
f 120//107 119//107 131//107 135//107
f 147//108 117//108 120//108 148//108 146//108 145//108 140//108 139//108
f 128//109 138//109 141//109 129//109
f 129//110 141//110 149//110 150//110
f 151//111 152//111 142//111 121//111 124//111 130//111
f 141//112 140//112 153//112 149//112
f 130//113 129//113 150//113 151//113
f 140//114 145//114 144//114 153//114
f 143//115 142//115 154//115 155//115
f 150//116 149//116 156//116 157//116
f 149//117 153//117 158//117 156//117
f 151//118 150//118 157//118 152//118
f 153//119 144//119 143//119 158//119
f 155//120 154//120 159//120 160//120
f 157//121 156//121 161//121 162//121
f 142//122 152//122 163//122 154//122
f 156//123 158//123 164//123 161//123
f 152//124 157//124 162//124 163//124
f 158//125 143//125 155//125 164//125
f 162//126 161//126 165//126 166//126
f 154//127 163//127 167//127 159//127
f 161//128 164//128 168//128 165//128
f 163//129 162//129 166//129 167//129
f 164//130 155//130 160//130 168//130
usemtl brown.006
f 123//131 122//131 137//131 136//131 133//131 132//131
f 167//132 166//132 165//132 168//132 160//132 159//132
