# Blender v2.79 (sub 0) OBJ File: ''
# www.blender.org
mtllib banana2.mtl
o Icosphere.002
v -0.092167 0.007728 0.054238
v -0.086330 0.027730 0.047984
v -0.114021 0.035069 0.058603
v -0.117854 0.021936 0.062709
v -0.067438 -0.005831 -0.010891
v -0.054518 -0.016257 0.007480
v -0.105831 -0.003947 0.041980
v -0.113658 0.004380 0.023469
v -0.016691 0.033357 -0.024341
v -0.133108 0.039855 0.056265
v -0.130556 0.037140 0.062301
v -0.003771 0.022932 -0.005969
v -0.002392 -0.001732 -0.004248
v -0.042977 -0.002020 0.024130
v -0.013933 -0.015969 -0.020898
v 0.024868 0.009629 -0.024524
v 0.039528 0.023954 -0.038319
v 0.024584 0.038869 -0.029504
v -0.126825 0.014270 0.054661
v -0.132460 0.030619 0.064340
v -0.136915 0.026812 0.060343
v -0.128132 0.032870 0.038401
v -0.131964 0.019737 0.042507
v -0.139467 0.029527 0.054308
v -0.137563 0.036048 0.052269
v 0.018672 -0.002637 -0.045123
v 0.000406 0.005817 -0.059546
v 0.016926 0.020432 -0.070679
v 0.035699 0.014736 -0.058907
v 0.026799 0.060580 -0.057679
v 0.025692 0.057738 -0.067260
v 0.015538 0.047007 -0.066725
v 0.001981 0.035347 -0.061864
v -0.028232 0.019120 -0.040991
v -0.026853 -0.005543 -0.039270
v -0.107821 0.024381 0.017215
v 0.044067 0.037642 -0.067244
v 0.045976 0.042543 -0.050723
v 0.032666 0.049676 -0.042203
v 0.035624 0.059286 -0.053040
v 0.028848 0.039874 -0.075245
v 0.035617 0.081853 -0.066154
v 0.034750 0.079628 -0.073655
v 0.042235 0.052307 -0.067560
v 0.043342 0.055149 -0.057980
v 0.033410 0.053602 -0.072200
v 0.036155 0.087409 -0.067134
v 0.035135 0.084790 -0.075961
v 0.047704 0.075375 -0.073891
v 0.048571 0.077601 -0.066389
v 0.042527 0.080840 -0.062520
v 0.040793 0.076389 -0.077524
v 0.050377 0.079787 -0.076238
v 0.051397 0.082405 -0.067411
v 0.044286 0.086216 -0.062859
v 0.042246 0.080979 -0.080513
vn 0.3916 0.1686 0.9046
vn -0.3774 -0.8938 -0.2422
vn 0.2788 0.9038 0.3246
vn 0.3334 -0.8181 0.4685
vn 0.5608 0.1194 0.8193
vn -0.2407 -0.5546 0.7966
vn 0.2394 0.2254 0.9444
vn -0.8189 0.0605 -0.5708
vn -0.7699 -0.6370 0.0390
vn 0.1944 -0.7215 -0.6646
vn 0.5449 -0.7837 0.2981
vn -0.6403 0.7223 -0.2615
vn -0.0079 -0.8698 -0.4933
vn -0.1141 -0.6528 0.7489
vn -0.2966 0.8142 -0.4992
vn 0.1843 -0.8063 0.5620
vn -0.2370 -0.9070 -0.3481
vn -0.7229 -0.0051 -0.6910
vn -0.6713 -0.7396 -0.0489
vn -0.5793 -0.0582 -0.8130
vn 0.7601 -0.6334 0.1454
vn 0.9393 -0.3428 -0.0148
vn -0.0534 0.8137 0.5788
vn 0.3768 -0.4304 -0.8202
vn 0.6513 0.2802 0.7052
vn -0.4577 0.1074 -0.8826
vn -0.9246 0.3808 -0.0061
vn 0.9816 0.1194 -0.1489
vn 0.4695 0.0396 -0.8820
vn 0.6408 0.4792 0.5998
vn -0.3834 0.3196 -0.8665
vn -0.9905 0.1104 0.0817
vn 0.9697 -0.2410 -0.0406
vn -0.3560 0.4694 0.8080
vn 0.4010 -0.3296 -0.8547
vn 0.5912 0.1585 0.7908
vn -0.5461 -0.0187 -0.8375
vn 0.8654 -0.4989 0.0480
vn -0.4334 0.1972 0.8794
vn 0.3082 -0.5857 -0.7497
vn 0.4945 -0.1074 0.8625
vn -0.6197 -0.2811 -0.7328
vn -0.7763 0.3831 0.5006
vn 0.2923 0.9071 -0.3029
usemtl yellow.002
s 1
f 1//1 2//1 3//1 4//1
f 5//2 6//2 7//2 8//2
f 9//3 10//3 11//3 3//3 2//3 12//3
f 13//4 14//4 6//4 15//4
f 13//5 16//5 17//5 18//5 12//5 2//5 1//5 14//5
f 19//6 4//6 20//6 21//6
f 4//7 3//7 11//7 20//7
f 22//8 23//8 24//8 25//8
f 23//9 19//9 21//9 24//9
f 26//10 27//10 28//10 29//10
f 13//11 15//11 26//11 16//11
f 9//12 30//12 31//12 32//12 33//12 34//12
f 15//13 35//13 27//13 26//13
f 7//14 1//14 4//14 19//14
f 36//15 22//15 25//15 10//15 9//15 34//15
f 6//16 14//16 1//16 7//16
f 15//17 6//17 5//17 35//17
f 36//18 8//18 23//18 22//18
f 8//19 7//19 19//19 23//19
f 35//20 5//20 8//20 36//20 34//20 33//20 28//20 27//20
f 16//21 26//21 29//21 17//21
f 17//22 29//22 37//22 38//22
f 39//23 40//23 30//23 9//23 12//23 18//23
f 29//24 28//24 41//24 37//24
f 18//25 17//25 38//25 39//25
f 28//26 33//26 32//26 41//26
f 31//27 30//27 42//27 43//27
f 38//28 37//28 44//28 45//28
f 37//29 41//29 46//29 44//29
f 39//30 38//30 45//30 40//30
f 41//31 32//31 31//31 46//31
f 43//32 42//32 47//32 48//32
f 45//33 44//33 49//33 50//33
f 30//34 40//34 51//34 42//34
f 44//35 46//35 52//35 49//35
f 40//36 45//36 50//36 51//36
f 46//37 31//37 43//37 52//37
f 50//38 49//38 53//38 54//38
f 42//39 51//39 55//39 47//39
f 49//40 52//40 56//40 53//40
f 51//41 50//41 54//41 55//41
f 52//42 43//42 48//42 56//42
usemtl brown.004
f 11//43 10//43 25//43 24//43 21//43 20//43
f 55//44 54//44 53//44 56//44 48//44 47//44
o Icosphere.003
v -0.035993 0.008568 0.098175
v -0.037201 0.027802 0.088084
v -0.062038 0.031182 0.105551
v -0.061245 0.018554 0.112177
v -0.026723 -0.011634 0.030773
v -0.007239 -0.015556 0.045542
v -0.049036 -0.007745 0.092092
v -0.063286 -0.004825 0.075916
v 0.007222 0.033867 -0.001927
v -0.081634 0.031437 0.108487
v -0.076988 0.030485 0.113761
v 0.026706 0.029945 0.012842
v 0.034608 0.006857 0.017045
v 0.004343 0.003610 0.056109
v 0.023026 -0.012309 0.006478
v 0.051825 0.019538 -0.011696
v 0.058271 0.033708 -0.030883
v 0.042941 0.046635 -0.019865
v -0.069809 0.007843 0.108183
v -0.076594 0.024213 0.117051
v -0.080846 0.018894 0.115068
v -0.079958 0.022389 0.090937
v -0.079165 0.009760 0.097563
v -0.085493 0.019847 0.109794
v -0.085887 0.026118 0.106503
v 0.043691 0.002619 -0.027842
v 0.020759 0.004294 -0.037032
v 0.029565 0.019622 -0.054294
v 0.051582 0.020201 -0.048097
v 0.032156 0.062652 -0.049819
v 0.029310 0.057895 -0.058207
v 0.022673 0.045610 -0.053355
v 0.014236 0.032549 -0.043276
v -0.004360 0.014701 -0.012494
v 0.003542 -0.008387 -0.008291
v -0.064494 0.014409 0.065825
v 0.051457 0.042351 -0.061272
v 0.056364 0.050554 -0.046806
v 0.044425 0.056284 -0.035614
v 0.041924 0.064085 -0.047920
v 0.034612 0.039880 -0.064546
v 0.032822 0.083300 -0.063060
v 0.030594 0.079575 -0.069628
v 0.046002 0.056006 -0.062798
v 0.048847 0.060762 -0.054409
v 0.036233 0.054572 -0.064697
v 0.031677 0.088563 -0.064822
v 0.029055 0.084180 -0.072551
v 0.043665 0.078096 -0.073223
v 0.045893 0.081820 -0.066655
v 0.040472 0.084422 -0.061573
v 0.036015 0.076973 -0.074710
v 0.044434 0.082440 -0.076781
v 0.047056 0.086822 -0.069052
v 0.040677 0.089884 -0.063072
v 0.035434 0.081119 -0.078530
vn -0.6872 0.3032 0.6602
vn -0.0342 0.8743 -0.4842
vn 0.5610 0.4120 0.7180
vn -0.1920 -0.9814 -0.0076
vn 0.1194 0.9863 0.1140
vn 0.6385 -0.6298 0.4424
vn 0.7085 0.3834 0.5925
vn 0.1242 -0.4323 0.8931
vn 0.4156 0.4429 0.7944
vn -0.9285 -0.2166 -0.3017
vn -0.5478 -0.7621 0.3450
vn 0.1863 -0.7782 -0.5997
vn 0.7821 -0.5854 0.2135
vn -0.8460 0.5138 -0.1428
vn 0.0801 -0.9299 -0.3590
vn 0.2542 -0.5097 0.8219
vn -0.6113 0.6277 -0.4819
vn 0.5213 -0.6313 0.5742
vn -0.0858 -0.9852 -0.1484
vn -0.8543 -0.2826 -0.4363
vn -0.4535 -0.8570 0.2448
vn -0.7394 -0.3272 -0.5884
vn 0.9048 -0.4257 -0.0138
vn 0.9569 -0.1399 -0.2543
vn -0.1006 0.8795 0.4651
vn 0.2425 -0.4905 -0.8370
vn 0.7226 0.5349 0.4378
vn -0.6858 -0.1562 -0.7108
vn -0.9583 0.1756 0.2255
vn 0.8455 0.2875 -0.4499
vn 0.1952 -0.0316 -0.9803
vn 0.6353 0.7041 0.3172
vn -0.6654 0.0658 -0.7436
vn -0.9290 -0.0812 0.3612
vn 0.9530 -0.0408 -0.3001
vn -0.2361 0.5299 0.8145
vn 0.2308 -0.3952 -0.8891
vn 0.7196 0.4218 0.5517
vn -0.7248 -0.2870 -0.6263
vn 0.9436 -0.2932 -0.1538
vn -0.2214 0.2660 0.9382
vn 0.2360 -0.6404 -0.7309
vn 0.7149 0.1600 0.6807
vn -0.7002 -0.5344 -0.4734
usemtl brown.005
s 1
f 67//45 66//45 81//45 80//45 77//45 76//45
f 111//46 110//46 109//46 112//46 104//46 103//46
usemtl yellow.003
f 57//47 58//47 59//47 60//47
f 61//48 62//48 63//48 64//48
f 65//49 66//49 67//49 59//49 58//49 68//49
f 69//50 70//50 62//50 71//50
f 69//51 72//51 73//51 74//51 68//51 58//51 57//51 70//51
f 75//52 60//52 76//52 77//52
f 60//53 59//53 67//53 76//53
f 78//54 79//54 80//54 81//54
f 79//55 75//55 77//55 80//55
f 82//56 83//56 84//56 85//56
f 69//57 71//57 82//57 72//57
f 65//58 86//58 87//58 88//58 89//58 90//58
f 71//59 91//59 83//59 82//59
f 63//60 57//60 60//60 75//60
f 92//61 78//61 81//61 66//61 65//61 90//61
f 62//62 70//62 57//62 63//62
f 71//63 62//63 61//63 91//63
f 92//64 64//64 79//64 78//64
f 64//65 63//65 75//65 79//65
f 91//66 61//66 64//66 92//66 90//66 89//66 84//66 83//66
f 72//67 82//67 85//67 73//67
f 73//68 85//68 93//68 94//68
f 95//69 96//69 86//69 65//69 68//69 74//69
f 85//70 84//70 97//70 93//70
f 74//71 73//71 94//71 95//71
f 84//72 89//72 88//72 97//72
f 87//73 86//73 98//73 99//73
f 94//74 93//74 100//74 101//74
f 93//75 97//75 102//75 100//75
f 95//76 94//76 101//76 96//76
f 97//77 88//77 87//77 102//77
f 99//78 98//78 103//78 104//78
f 101//79 100//79 105//79 106//79
f 86//80 96//80 107//80 98//80
f 100//81 102//81 108//81 105//81
f 96//82 101//82 106//82 107//82
f 102//83 87//83 99//83 108//83
f 106//84 105//84 109//84 110//84
f 98//85 107//85 111//85 103//85
f 105//86 108//86 112//86 109//86
f 107//87 106//87 110//87 111//87
f 108//88 99//88 104//88 112//88
o Icosphere.004
v 0.039017 0.038634 0.121059
v 0.030338 0.054398 0.108836
v 0.011317 0.057183 0.132582
v 0.017016 0.046832 0.140608
v 0.033829 0.005194 0.058673
v 0.056996 0.008495 0.066769
v 0.029243 0.019242 0.122349
v 0.010789 0.015614 0.111415
v 0.044996 0.047154 0.009615
v -0.006116 0.054526 0.141622
v -0.000099 0.055709 0.145187
v 0.068163 0.050455 0.017711
v 0.082366 0.030853 0.022926
v 0.065960 0.031397 0.069650
v 0.073403 0.007951 0.020045
v 0.087209 0.039352 -0.011535
v 0.084349 0.049544 -0.033859
v 0.070000 0.061666 -0.020796
v 0.010599 0.034100 0.141454
v 0.002731 0.050569 0.149172
v -0.000456 0.044246 0.149592
v -0.007217 0.042068 0.126250
v -0.001518 0.031718 0.134276
v -0.006473 0.043063 0.146028
v -0.009303 0.048203 0.142042
v 0.079337 0.017913 -0.021104
v 0.055079 0.013149 -0.022513
v 0.054660 0.025333 -0.044003
v 0.076679 0.031378 -0.045463
v 0.047691 0.067933 -0.047873
v 0.043887 0.060899 -0.053966
v 0.042110 0.049097 -0.045243
v 0.040311 0.037455 -0.030939
v 0.036033 0.024252 0.006734
v 0.050236 0.004651 0.011949
v 0.002110 0.031378 0.099192
v 0.067426 0.049399 -0.061395
v 0.073986 0.061530 -0.050886
v 0.064608 0.067444 -0.037556
v 0.056933 0.071538 -0.049509
v 0.051488 0.043182 -0.058573
v 0.039525 0.084650 -0.063872
v 0.036546 0.079141 -0.068644
v 0.058567 0.061073 -0.063333
v 0.062371 0.068108 -0.057239
v 0.049325 0.057469 -0.061696
v 0.036672 0.089049 -0.066022
v 0.033167 0.082568 -0.071637
v 0.048041 0.079278 -0.075978
v 0.051020 0.084787 -0.071206
v 0.046762 0.087472 -0.065154
v 0.040804 0.076456 -0.074697
v 0.046692 0.082729 -0.080266
v 0.050197 0.089210 -0.074652
v 0.045187 0.092370 -0.067530
v 0.038177 0.079408 -0.078759
vn 0.6191 0.6649 0.4179
vn 0.0618 -0.9737 0.2193
vn -0.1008 0.9901 -0.0975
vn 0.8713 -0.3801 0.3104
vn 0.7281 0.6351 0.2580
vn 0.4708 -0.1798 0.8637
vn 0.4977 0.6858 0.5310
vn -0.8924 -0.4478 0.0561
vn -0.2243 -0.7467 0.6263
vn 0.1979 -0.8497 -0.4886
vn 0.9299 -0.3653 0.0434
vn -0.9518 0.3018 0.0552
vn 0.2038 -0.9574 -0.2047
vn 0.5907 -0.2466 0.7683
vn -0.8566 0.3738 -0.3557
vn 0.7997 -0.3720 0.4713
vn 0.1222 -0.9910 0.0544
vn -0.8447 -0.5289 -0.0822
vn -0.1412 -0.8435 0.5182
vn -0.7695 -0.5862 -0.2536
vn 0.9410 -0.2438 -0.2348
vn 0.8519 -0.0181 -0.5235
vn -0.1809 0.9305 0.3186
vn 0.1130 -0.6207 -0.7759
vn 0.6607 0.7460 0.0841
vn -0.7960 -0.4420 -0.4136
vn -0.8699 0.0450 0.4911
vn 0.5885 0.3236 -0.7409
vn -0.0841 -0.2250 -0.9707
vn 0.5043 0.8631 -0.0282
vn -0.8410 -0.2340 -0.4878
vn -0.7415 -0.1628 0.6509
vn 0.8110 0.0651 -0.5814
vn -0.1230 0.6542 0.7463
vn 0.0641 -0.5441 -0.8366
vn 0.7175 0.6642 0.2100
vn -0.7764 -0.5541 -0.3003
vn 0.9053 -0.1432 -0.3999
vn -0.0098 0.4340 0.9009
vn 0.1735 -0.7399 -0.6499
vn 0.8137 0.4438 0.3755
vn -0.6499 -0.7497 -0.1245
vn -0.5287 0.3188 0.7866
vn -0.3824 0.7144 -0.5860
usemtl yellow.004
s 1
f 113//89 114//89 115//89 116//89
f 117//90 118//90 119//90 120//90
f 121//91 122//91 123//91 115//91 114//91 124//91
f 125//92 126//92 118//92 127//92
f 125//93 128//93 129//93 130//93 124//93 114//93 113//93 126//93
f 131//94 116//94 132//94 133//94
f 116//95 115//95 123//95 132//95
f 134//96 135//96 136//96 137//96
f 135//97 131//97 133//97 136//97
f 138//98 139//98 140//98 141//98
f 125//99 127//99 138//99 128//99
f 121//100 142//100 143//100 144//100 145//100 146//100
f 127//101 147//101 139//101 138//101
f 119//102 113//102 116//102 131//102
f 148//103 134//103 137//103 122//103 121//103 146//103
f 118//104 126//104 113//104 119//104
f 127//105 118//105 117//105 147//105
f 148//106 120//106 135//106 134//106
f 120//107 119//107 131//107 135//107
f 147//108 117//108 120//108 148//108 146//108 145//108 140//108 139//108
f 128//109 138//109 141//109 129//109
f 129//110 141//110 149//110 150//110
f 151//111 152//111 142//111 121//111 124//111 130//111
f 141//112 140//112 153//112 149//112
f 130//113 129//113 150//113 151//113
f 140//114 145//114 144//114 153//114
f 143//115 142//115 154//115 155//115
f 150//116 149//116 156//116 157//116
f 149//117 153//117 158//117 156//117
f 151//118 150//118 157//118 152//118
f 153//119 144//119 143//119 158//119
f 155//120 154//120 159//120 160//120
f 157//121 156//121 161//121 162//121
f 142//122 152//122 163//122 154//122
f 156//123 158//123 164//123 161//123
f 152//124 157//124 162//124 163//124
f 158//125 143//125 155//125 164//125
f 162//126 161//126 165//126 166//126
f 154//127 163//127 167//127 159//127
f 161//128 164//128 168//128 165//128
f 163//129 162//129 166//129 167//129
f 164//130 155//130 160//130 168//130
usemtl brown.006
f 123//131 122//131 137//131 136//131 133//131 132//131
f 167//132 166//132 165//132 168//132 160//132 159//132
